<svg xmlns="http://www.w3.org/2000/svg" width="169" height="80" viewBox="0 0 169 80"><title>PT</title><g fill="#FFFFFF"><path d="M3 29h14l17-14v50L17 51H3z"/><path d="M44 23q18 17 0 34" fill="none" stroke="white" stroke-width="6" stroke-linecap="round"/><path d="M169 1493H744Q1001 1493 1138.0 1366.5Q1275 1240 1275 1006Q1275 771 1138.0 644.5Q1001 518 744 518H516V0H169ZM516 1214V797H707Q808 797 863.0 851.5Q918 906 918 1006Q918 1106 863.0 1160.0Q808 1214 707 1214Z" transform="translate(70.000 66) scale(0.03515625 -0.03515625)"/><path d="M9 1493H1247V1202H802V0H455V1202H9Z" transform="translate(117.461 66) scale(0.03515625 -0.03515625)"/></g></svg>
